<svg version="1.2" xmlns="http://www.w3.org/2000/svg" viewBox="0 0 606 564" width="606" height="564">
	<title>corner-image-svg</title>
	<defs>
		<clipPath clipPathUnits="userSpaceOnUse" id="cp1">
			<path d="m317.7 62.8h6.4c-1.4 0.2-2.6 0.7-3.7 1.6h-7.1c1.1-0.9 2.3-1.4 3.7-1.6z"/>
		</clipPath>
		<clipPath clipPathUnits="userSpaceOnUse" id="cp2">
			<path d="m319.3 428h-7.1c-3.2 0-6.2-2.4-7.9-6.7h7.1c1.7 4.3 4.8 6.7 7.9 6.7z"/>
		</clipPath>
		<clipPath clipPathUnits="userSpaceOnUse" id="cp3">
			<path d="m212.8 165.6h-7.1c-2.4-6.3-0.9-14.2 3.5-17.7h7.1c-4.3 3.5-5.9 11.4-3.5 17.7z"/>
		</clipPath>
	</defs>
	<style>
		.s0 { fill: #000000 } 
		.s1 { fill: #7431f4 } 
		.s2 { fill: #ffffff } 
	</style>
	<g id="Layer">
	</g>
	<g id="Layer">
		<path id="Layer" class="s0" d="m411.5 409.9l-86.7-166.9-225.4 24.1-0.2-1.5 226.5-24.3 87.2 167.9z"/>
	</g>
	<g id="Layer">
		<path id="Layer" class="s0" d="m289.5 358.1l-1.4-0.4 36.5-115.9 0.1-0.1 204.7-239.4 1.2 1-204.7 239.2z"/>
	</g>
	<g id="Layer">
		<path id="Layer" class="s0" d="m468.7 260.1l-144-17.3-0.1-0.4-96-229.1 1.4-0.6 95.8 228.8 143.1 17.1z"/>
	</g>
	<g id="Layer">
		<path id="Layer" class="s0" d="m325.4 242.9h-0.3l-142.7-21.2 0.3-1.5 142.4 21.2 228.5-148.3 0.9 1.3z"/>
	</g>
	<g id="Layer">
		<path id="Layer" class="s1" d="m488.8 167c-23.6 0-42.6-19-42.6-42.6 0-23.6 19-42.6 42.6-42.6 23.6 0 42.6 19 42.6 42.6 0 23.6-19 42.6-42.6 42.6z"/>
	</g>
	<g id="Layer">
		<path id="Layer" fill-rule="evenodd" class="s0" d="m604.4 562.4h-587v-1.5h240.9l-0.4-1c6.4-2.2 12.7-7.1 19.1-15.1 1.4-1.7 2.7-3.5 4-5.2 5.2-6.7 10.5-13.7 17.9-18 9.7-5.7 21.3-6 32.5-6.3 7.9-0.2 16.1-0.4 23.6-2.6 20.2-5.7 33.9-24.2 45.2-41.1 3.6-5.3 7.1-10.8 10.6-16.1 15.8-24.3 32.2-49.4 52.8-70.3 28.7-29.3 62.3-45.5 94.5-45.7 26-0.1 39.8 10.6 45.7 17l0.2 0.2v0.3zm-344.9-1.5h343.3l-0.2-203.7c-5.8-6.2-19.1-16.3-43.8-16.3q-0.3 0-0.6 0c-31.8 0.2-65 16.3-93.5 45.3-20.3 20.8-36.7 45.8-52.5 70.1-3.5 5.3-7.1 10.8-10.6 16.2-11.4 17.1-25.3 35.9-46 41.7-7.7 2.2-16 2.4-24 2.6-11.5 0.3-22.3 0.6-31.7 6.1-7.2 4.2-12.4 11-17.5 17.6-1.3 1.7-2.7 3.5-4.1 5.2-6.3 7.8-12.4 12.8-18.8 15.2z"/>
	</g>
	<g id="Layer">
		<path id="Layer" class="s0" d="m212.9 461.1l1.4-0.5 34.9 89.5-1.4 0.5z"/>
	</g>
	<g id="Layer">
		<path id="Layer" class="s0" d="m129.8 487l1.5-0.3 12 58.9-1.5 0.3z"/>
	</g>
	<g id="Layer">
		<path id="Layer" class="s0" d="m214.4 460.9l-1.5-0.1 2.9-38.9c1-14.3 1.3-29-7.9-38.5-7-7.2-17.6-9.2-27.8-10.6-13.3-1.8-26.7-3.2-40.1-4.1-14.7-1-23.9 2.1-27.3 9.3-3.6 7.6 1.3 17 7.9 21.4 7.2 4.8 16.4 5.7 24.5 6.5l0.7 0.1v0.7c0.1 15.5 13.4 27.3 27.9 37.8l-0.9 1.2c-14.5-10.6-28-22.5-28.5-38.3-8.1-0.8-17.2-1.9-24.5-6.7-7.3-4.8-12.5-14.9-8.5-23.3 3.7-7.8 13.4-11.2 28.8-10.1 13.4 0.9 26.9 2.3 40.2 4.1 10.5 1.5 21.4 3.5 28.7 11 9.6 9.9 9.4 25 8.3 39.6z"/>
	</g>
	<g id="Layer">
		<path id="Layer" class="s0" d="m191.8 372.9l-1.5-0.4q6.4-26.2 12.9-52.5c1.6-6.4 3.3-13.6 2.5-20.6-0.9-7.5-5.2-13.7-10.9-15.9-7.4-2.8-15.9 1.5-20.5 7.3-4.8 6.1-6.9 13.9-8.8 22.1-4.2 18.5-7.6 37.4-10.1 56.2l-1.5-0.2c2.5-18.8 6-37.8 10.2-56.3 1.9-8.3 4-16.3 9-22.7 6.8-8.6 16.3-10.1 22.2-7.8 6.2 2.3 10.9 9.1 11.9 17.1 0.9 7.3-0.9 14.6-2.5 21.1-4.4 17.6-8.6 35.1-12.9 52.6z"/>
	</g>
	<g id="Layer">
		<path id="Layer" class="s0" d="m117 371.6c-3.2-18.3-5.4-35.3-7-55.1-0.7-8.5-1.1-16.8 1.8-24.3 3.9-10.2 12.5-14.5 18.9-14.2 6.6 0.4 13.1 5.3 16.5 12.7 3 6.6 3.5 14.2 4 20.9 0.6 9 1.4 19.1 2.1 28.8 0.8 9.6 1.5 19.6 2.1 28.5l-1.5 0.1c-0.6-8.9-1.4-18.9-2.1-28.5-0.8-9.7-1.5-19.8-2.1-28.9-0.4-6.6-0.9-14-3.8-20.3-3.1-6.9-9.1-11.5-15.2-11.9-8-0.4-14.8 6.3-17.4 13.2-2.7 7.2-2.4 15.3-1.7 23.7 1.6 19.7 3.8 36.6 7 54.9z"/>
	</g>
	<g id="Layer">
		<path id="Layer" class="s0" d="m117.5 438.3c-2 0-4.2-0.4-6.2-1.4-4.2-1.9-7.4-5.2-10.6-8.8-5-5.7-11.1-13.4-14.4-22.6-3.3-9.4-3-19 0.9-26.5 4.8-9.2 15.1-12.5 30.4-9.9l-0.3 1.5c-14.6-2.5-24.4 0.6-28.9 9.1-3.7 7.1-4 16.3-0.8 25.3 3.2 9 9.2 16.5 14.1 22.1 3 3.4 6.1 6.6 10.1 8.4 4.3 1.9 9 1.6 12-0.9 2.3-2 3.6-5.2 4.1-10.1 0.6-6.1-1.1-15.4-3-21.6l1.4-0.5c1.9 6.1 3.7 15.6 3.1 22.2-0.3 3.3-1.2 8.1-4.6 11.1-1.9 1.8-4.5 2.6-7.3 2.6z"/>
	</g>
	<g id="Layer">
		<path id="Layer" class="s0" d="m101.7 470.9c-3.1 0-6.4-0.9-9.4-2.7-4.1-2.6-7.6-5.8-10.3-9.7-3.9-5.1-7.2-10.8-9.7-16.7-2.9-6.6-3.9-12-3.1-16.9 1.5-9.4 9.3-16.3 17.2-22.5l0.9 1.2c-7.7 6-15.3 12.6-16.6 21.5-0.7 4.6 0.3 9.7 3 16 2.5 5.9 5.7 11.4 9.6 16.4q4.1 5.7 9.9 9.3c4.1 2.4 8.9 3.1 12.8 1.8 6.3-2 9.8-8.8 10.6-14.6 0.8-6.4-0.1-10.1-1.8-16.6l1.4-0.4c1.7 6.5 2.7 10.5 1.8 17.1-0.8 6.3-4.7 13.7-11.6 15.9-1.5 0.7-3.1 0.9-4.7 0.9z"/>
	</g>
	<g id="Layer">
		<path id="Layer" class="s0" d="m131.1 488.5c-5.8 0-11.3-1.6-16.3-4.7-5.3-3.4-10-7.5-14-12.4l1.2-0.9c3.9 4.8 8.5 8.8 13.6 12.1 5.2 3.3 11.2 4.8 17.3 4.4l0.1 1.5c-0.6 0-1.2 0-1.9 0z"/>
	</g>
	<g id="Layer">
		<path id="Layer" class="s2" d="m536.4 279.4c-37.1 0-67.1-30-67.1-67.1 0-37.1 30-67.1 67.1-67.1 37.1 0 67.1 30 67.1 67.1 0 37.1-30 67.1-67.1 67.1z"/>
		<path id="Layer" fill-rule="evenodd" class="s0" d="m536.4 280.1c-37.4 0-67.9-30.5-67.9-67.9 0-37.4 30.5-67.9 67.9-67.9 37.4 0 67.9 30.5 67.9 67.9 0 37.4-30.5 67.9-67.9 67.9zm0-134.2c-36.6 0-66.4 29.8-66.4 66.4 0 36.6 29.8 66.4 66.4 66.4 36.6 0 66.4-29.8 66.4-66.4 0-36.6-29.8-66.4-66.4-66.4z"/>
	</g>
	<g id="Layer">
		<path id="Layer" class="s0" d="m491.1 174.8c3 0.9 6.1 0.6 9.2 0.5 5.3-0.2 10.6 0.3 15.8 1.5 2 0.3 3.9 1.1 5.5 2.4 1.6 1.3 2.3 3.4 1.6 5.4-0.9 2.1-3.6 3.8-2.5 5.8 0.4 0.6 0.9 1 1.5 1.3 2.8 1.6 5.3 3.7 7.2 6.4 1.9 2.7 2.4 6.1 1.4 9.2-1.3 3.2-4.6 5.2-7.8 6.6-3.9 1.7-8 3-12.2 3.8-2.5 0.3-4.9 0.9-7.3 1.7-2.3 1-4.4 2.9-4.9 5.3-0.5 2.4 1.2 5.4 3.8 5.5 1.4 0.1 2.8-0.7 4.2-0.9 4.2-0.6 7.2 3.8 11 5.6 2.6 1.2 5.6 1.3 8.3 2.4 2.7 1.1 5.2 3.7 4.5 6.4-0.8 2.9-4.6 3.9-6.1 6.5-1 1.6-1.1 3.7-2.5 4.8-1 0.8-2.5 0.8-3.7 1.2-3 0.9-4.9 3.7-5.9 6.6-1 2.9-1.1 6-1.6 9.1-0.6 3.8-10.7-3.1-12.5-4.6-2.2-1.7-5.1-3.5-6.4-6-1.3-2.5-0.8-5.7-2-8.3-1-2.3-3.1-3.9-4.3-6.1-0.6-1.2-1-2.5-1.6-3.8-0.7-1.5-1.8-2.8-2.5-4.2-0.8-1.5-0.9-3.2-0.1-4.7 2-2.9 7.3-1.2 9.5-4 1.2-1.4 1-3.6 1.8-5.3 0.6-1.2 1.8-2.4 1.6-3.7-0.4-2-3.1-2.1-5.1-2.1-2.2 0-4.4-0.5-6.5-1.5-0.6-0.2-1.1-0.7-1.3-1.2-0.1-0.7 0.1-1.3 0.3-1.9 0.5-2.1-1.3-4.1-3.3-5.1-2-1-4.2-1.4-5.8-2.9-1.9-1.9-2.9-4.6-2.5-7.3 0.4-2.7 1.2-5.2 2.4-7.6 2.2-5.3 4.7-10.4 7.6-15.4 0.9-1.4 3.2-6.1 5.1-5.8 0.7 0.1 1.7 2.1 2.3 2.6 1.3 0.8 2.5 1.4 3.8 1.8z"/>
	</g>
	<g id="Layer">
		<path id="Layer" class="s0" d="m600 193.4l0.1 2.2c0.1 0.1 0.1 0.2 0.1 0.3 0.3 1.1-0.5 2.3-1.7 2.5q-3.6 1.6-7.5 2.1c-1.2 0-2.3 0.2-3.4 0.8-1.4 1.1-1.5 3.3-0.9 4.9 0.6 1.6 1.6 3.2 1.9 4.9 0.7 4.4-4.6 7.7-0.3 10.9 2.8 1.9 6.3 2.6 9.7 2 1.5-0.2 2.8-1 3.6-2.2 0.4-0.6 0.7-1.5 1.4-1.4 0.7 2.2-0.5 4.5-1.3 6.6-1 2.6-1.2 5.4-2 8.1-1.4 4.8-4.5 8.6-6.5 13-0.8 1.9-1.8 3.7-3.1 5.3-1.7 2-4.1 5.9-6.4 3.9-2.3-2-2.4-6.2-5.8-7.1-1.7-0.4-3.7 0.3-5.1-0.7-2.7-2 0.4-7.3-2.3-9.3-0.4-0.3-0.9-0.5-1-0.9-0.1-0.2 0-0.5 0.1-0.8 1.8-5 8.4-6.1 12.2-9.8 0.3-0.2 0.5-0.5 0.6-0.8 0.1-0.6 0-1.1-0.3-1.6l-3.4-7.4c-0.4-0.9-0.9-1.8-1.7-2.5-2.4-1.9-6.8-0.1-8.5-2.6-0.3-0.6-0.6-1.1-1-1.6-1.1-1.1-3.5-0.5-4.2-2 1-1 2-2.2 2.8-3.4 0.3-0.3 0.5-0.8 0.5-1.2 0-0.9-1-1.4-1.9-1.7-3-0.9-6.8-2-10-1.6-2.6 0.3-4.4 1.2-6.4-1.4-1.1-1.6-1.3-3.7-0.5-5.4 0.7-1.6 2.3-3 2-4.7-0.2-1.2-1.3-2-1.9-3-2.2-3.4 1.2-8 0-11.9l-5.7-1.5c-2.5-0.7-5.5-1.8-5.8-4.4-0.1-1.2 0.4-2.4 0-3.4-0.3-0.6-0.8-1.2-1.4-1.6-2-1.5-4.4-2.4-6.7-3.7-2.3-1.3-4.4-3.3-4.7-5.8-0.1-1.1 0.1-2.2-0.1-3.2-0.3-2.1-1.9-4-4-4.6 0.9-0.8 1.9-1.5 3-2 1.5-0.3 2.6 0.3 4.1-0.2 1-0.3 2.1-0.4 3.2-0.4 6.1-0.1 12.1 0.7 18.1 0.7 5.8 1.1 11.7 2.2 16.9 4.9 2.1 1.1 4.1 2.4 6 3.7l7.2 4.7c2.3 1.4 4.4 3 6.4 4.8 1.6 1.6 3 3.4 4.3 5.3 2.3 3.2 4.3 6.6 6.1 10.2 1.7 3.4 3.4 6.5 4.4 9.9 0.4 1.4 0.7 2.8 0.8 4.1z"/>
	</g>
	<g id="Layer">
		<path id="Layer" class="s2" d="m114.4 526.7h160.3v35.1h-160.3z"/>
		<path id="Layer" fill-rule="evenodd" class="s0" d="m275.4 562.5h-161.8v-36.5h161.8zm-160.3-1.5h158.8v-33.6h-158.8z"/>
	</g>
	<g id="Layer">
	</g>
	<g id="Layer">
		<path id="Layer" class="s0" d="m130.7 487.8l25.6-2.8 13 41.6h-30.7z"/>
	</g>
	<g id="Layer">
		<path id="Layer" class="s0" d="m79.1 526.7h35.3v35h-35.3z"/>
		<path id="Layer" fill-rule="evenodd" class="s0" d="m115.1 562.5h-36.8v-36.5h36.8zm-35.3-1.5h33.8v-33.5h-33.8z"/>
	</g>
	<g id="Layer">
	</g>
	<g id="Layer">
	</g>
	<g id="Layer">
	</g>
	<g id="Layer">
	</g>
	<g id="Layer">
		<path id="Layer" class="s1" d="m337 521.6c-3.8-2.8-7.2-6.1-10.2-9.7-20.8-25-17.3-62.1 7.7-82.8-11-10-17.6-23.8-18.6-38.6h114.7c-1.1 15.3-8.2 29.6-19.8 39.6 2.4 2.1 4.6 4.4 6.6 6.8 20.7 25.1 17.2 62.1-7.9 82.8 13 10.1 21.1 25.2 22.2 41.6h-114.7c1-15.4 8.3-29.7 20-39.7z"/>
	</g>
	<g id="Layer">
		<path id="Layer" class="s0" d="m347 135.1h-7.1l-3-7.6h7.1z"/>
	</g>
	<g id="Layer">
		<path id="Layer" class="s0" d="m341.7 139.4h-7.1l5.3-4.3h7.1z"/>
	</g>
	<g id="Layer">
		<path id="Layer" class="s0" d="m344 127.5l3 7.6-5.3 4.3-3-7.6z"/>
	</g>
	<g id="Layer">
		<path id="Layer" class="s0" d="m338.7 131.8h-7.1l5.3-4.3h7.1z"/>
	</g>
	<g id="Layer">
		<path id="Layer" class="s0" d="m341.7 139.4h-7.1l-3-7.6h7.1z"/>
	</g>
	<g id="Layer">
		<path id="Layer" class="s0" d="m331.4 147.9h-7.1l4.8-4h7.1z"/>
	</g>
	<g id="Layer">
		<path id="Layer" class="s0" d="m317.7 62.8h6.4c-1.4 0.2-2.6 0.7-3.7 1.6h-7.1c1.1-0.9 2.3-1.4 3.7-1.6z"/>
	</g>
	<g id="Layer">
		<g id="Clip-Path" clip-path="url(#cp1)">
			<g id="Layer">
				<g id="Layer">
					<path id="Layer" class="s0" d="m320.4 64.3h-7.1l0.6-0.5h7.1c-0.2 0.2-0.4 0.4-0.6 0.5z"/>
				</g>
				<g id="Layer">
					<path id="Layer" class="s0" d="m321 63.9h-7.1q0.9-0.6 1.8-0.9h7.1q-0.9 0.3-1.8 0.9z"/>
				</g>
				<g id="Layer">
					<path id="Layer" class="s0" d="m322.8 63h-7.1c0.4-0.1 0.8-0.2 1.3-0.3h7.1c-0.5 0.1-0.9 0.2-1.3 0.3z"/>
				</g>
			</g>
		</g>
	</g>
	<g id="Layer">
		<path id="Layer" class="s0" d="m336.2 143.9h-7.1l-16.5-39.8h7.1z"/>
	</g>
	<g id="Layer">
		<path id="Layer" class="s0" d="m328.9 139.7l-7.1-0.1-10.8-26.3h7.1z"/>
	</g>
	<g id="Layer">
		<path id="Layer" class="s0" d="m311.9 118.4h-7.1l6.2-5.1h7.1z"/>
	</g>
	<g id="Layer">
		<path id="Layer" class="s0" d="m319.3 428h-7.1c-3.2 0-6.2-2.4-7.9-6.7h7.1c1.7 4.3 4.8 6.7 7.9 6.7z"/>
	</g>
	<g id="Layer">
		<g id="Clip-Path" clip-path="url(#cp2)">
			<g id="Layer">
				<g id="Layer">
					<path id="Layer" class="s0" d="m319.3 428h-7.1c-3.2 0-6.2-2.4-7.9-6.7h7.1c1.7 4.3 4.8 6.7 7.9 6.7z"/>
				</g>
			</g>
		</g>
	</g>
	<g id="Layer">
		<path id="Layer" class="s0" d="m309.6 112.5h-7.1l10.1-8.4h7.1z"/>
	</g>
	<g id="Layer">
		<path id="Layer" class="s0" d="m311.9 118.4h-7.1l-2.3-5.9h7.1z"/>
	</g>
	<g id="Layer">
		<path id="Layer" class="s0" d="m309.2 166.2h-7.1l4.1-3.4h7.1z"/>
	</g>
	<g id="Layer">
		<path id="Layer" class="s0" d="m328.9 139.7l-7.1-0.1-21.2-9.7h7.1z"/>
	</g>
	<g id="Layer">
		<path id="Layer" class="s0" d="m331.4 147.9h-7.1l-26.6-12.2h7.1z"/>
	</g>
	<g id="Layer">
		<path id="Layer" class="s0" d="m306.8 106.4h-7.1l-2.3-5.9h7.1z"/>
	</g>
	<g id="Layer">
		<path id="Layer" class="s0" d="m299.3 112.6h-7.1l7.5-6.2h7.1z"/>
	</g>
	<g id="Layer">
		<path id="Layer" class="s0" d="m307.7 129.9h-7.1l-8.4-17.3h7.1z"/>
	</g>
	<g id="Layer">
		<path id="Layer" class="s0" d="m304.8 135.7h-7.1l-12.3-25.3h7.1z"/>
	</g>
	<g id="Layer">
		<path id="Layer" class="s0" d="m292.5 110.4h-7.1l12-9.9h7.1z"/>
	</g>
	<g id="Layer">
		<path id="Layer" class="s0" d="m313.3 162.8h-7.1l-25.7-48.4h7.1z"/>
	</g>
	<g id="Layer">
		<path id="Layer" class="s0" d="m309.2 166.2h-7.1l-22.8-43h7.1z"/>
	</g>
	<g id="Layer">
		<path id="Layer" class="s0" d="m289.3 164h-7.1l-4.4-39.5h7.1z"/>
	</g>
	<g id="Layer">
		<path id="Layer" class="s0" d="m284.9 124.5h-7.1l1.5-1.3h7.1z"/>
	</g>
	<g id="Layer">
		<path id="Layer" class="s0" d="m284.7 167.8h-7.1l4.6-3.8h7.1z"/>
	</g>
	<g id="Layer">
		<path id="Layer" class="s0" d="m283 149.7h-7.1l-3.3-28.8h7.1z"/>
	</g>
	<g id="Layer">
		<path id="Layer" class="s0" d="m279.7 120.9h-7.1l7.9-6.5h7.1z"/>
	</g>
	<g id="Layer">
		<path id="Layer" class="s0" d="m283 149.7h-7.1l-9.4-23.8h7z"/>
	</g>
	<g id="Layer">
		<path id="Layer" class="s0" d="m269.5 129.3h-7.1l4.1-3.4h7z"/>
	</g>
	<g id="Layer">
		<path id="Layer" class="s0" d="m287.6 114.4l25.7 48.4-4.1 3.4-22.8-43-1.5 1.3 4.4 39.5-4.6 3.8-15.2-38.5 4-3.4 9.5 23.8-3.3-28.8z"/>
	</g>
	<g id="Layer">
		<path id="Layer" class="s0" d="m284.7 167.8h-7.1l-15.2-38.5h7.1z"/>
	</g>
	<g id="Layer">
		<path id="Layer" fill-rule="evenodd" class="s2" d="m431.2 325.1c2.4 6.3 0.9 14.2-3.5 17.7l-104 83.6c-1.1 0.9-2.4 1.4-3.7 1.6-3.4 0.4-6.8-2-8.6-6.6l-94.4-245-4.2-10.8c-2.4-6.3-0.9-14.2 3.5-17.7l104-83.6c1.1-0.9 2.3-1.4 3.7-1.6 3.4-0.4 6.8 2 8.6 6.6zm-122-159l4.1-3.4-25.7-48.4-7.9 6.5 3.3 28.9-9.5-23.8-4.1 3.4 15.3 38.4 4.7-3.9-4.5-39.5 1.5-1.2zm22.2-18.2l4.8-4-16.4-39.8-10.2 8.4 2.4 5.9 6.1-5.1 10.9 26.3-21.2-9.8-8.4-17.3 7.5-6.2-2.3-5.9-12 9.9 12.3 25.3zm10.3-8.5l5.2-4.3-3-7.6-5.2 4.3z"/>
		<path id="Layer" fill-rule="evenodd" class="s0" d="m319.3 428.8c-3.6 0-6.9-2.7-8.6-7.2l-98.6-255.7c-2.5-6.5-0.9-14.9 3.7-18.5l104-83.6c1.2-1 2.6-1.6 4.1-1.8 3.9-0.4 7.5 2.4 9.4 7.1l98.6 255.7c2.5 6.6 0.9 14.9-3.7 18.6l-104 83.6c-1.2 1-2.6 1.6-4.1 1.8-0.3 0-0.5 0-0.8 0zm5.4-365.3q-0.3 0-0.6 0c-1.2 0.2-2.3 0.6-3.3 1.4l-104 83.6c-4.1 3.3-5.6 10.9-3.3 16.8l98.6 255.7c1.6 4.1 4.6 6.5 7.8 6.2 1.2-0.1 2.4-0.6 3.3-1.4l104-83.6c4.1-3.3 5.6-10.9 3.3-16.8l-98.6-255.7c-1.5-3.9-4.2-6.2-7.2-6.2zm-40.3 105.6l-15.8-39.9 5.3-4.4 7.7 19.5-2.7-23.7 8.9-7.4 26.4 49.7-4.6 3.8-0.5-0.5-0.7 0.4-22.3-42.1-0.5 0.4 4.5 39.5zm-14-39.5l14.7 37 3.6-2.9-4.5-39.5 2.5-2.1 22.7 42.9 2.9-2.4-25-47-6.9 5.7 3.9 34.1-11.2-28.1zm60.6 19l-26.9-12.4-12.7-26.1 13.3-10.9 2.9 7.4-7.5 6.2 8.1 16.5 19.2 8.8-9.8-23.6-6.2 5.1-2.9-7.4 11.4-9.4 17 41.3-5.2 4.4-0.5-0.6zm-25.7-13.5l25.9 12 4.1-3.4-15.8-38.4-9 7.4 1.8 4.4 6.1-5.1 12 29.1-23.2-10.7-8.8-18.1 7.6-6.2-1.8-4.4-10.7 8.9zm36.9 4.9l-0.5-0.6-0.7 0.3-3.2-8.1 6.5-5.3 3.6 9zm-2.6-8l2.4 6.1 4-3.3-2.4-6.1z"/>
	</g>
	<g id="Layer">
		<path id="Layer" class="s0" d="m304.5 100.5l2.3 5.9-7.5 6.2 8.4 17.3 21.2 9.8-10.8-26.4-6.2 5.1-2.3-5.9 10.1-8.4 16.5 39.8-4.8 4-26.6-12.2-12.3-25.3z"/>
	</g>
	<g id="Layer">
		<path id="Layer" class="s0" d="m311.5 421.4h-7.1l-94.5-245h7.1z"/>
	</g>
	<g id="Layer">
		<path id="Layer" class="s0" d="m216.3 147.9h-7.1l104.1-83.6h7.1z"/>
	</g>
	<g id="Layer">
		<path id="Layer" class="s0" d="m217 176.4h-7.1l-4.1-10.8h7z"/>
	</g>
	<g id="Layer">
		<path id="Layer" class="s0" d="m212.8 165.6h-7.1c-2.4-6.3-0.9-14.2 3.5-17.7h7.1c-4.3 3.5-5.9 11.4-3.5 17.7z"/>
	</g>
	<g id="Layer">
		<g id="Clip-Path" clip-path="url(#cp3)">
			<g id="Layer">
				<g id="Layer">
					<path id="Layer" class="s0" d="m212.8 165.6h-7.1c-0.2-0.5-0.4-1-0.5-1.6h7.1c0.2 0.6 0.3 1.1 0.5 1.6z"/>
				</g>
				<g id="Layer">
					<path id="Layer" class="s0" d="m212.3 164.1h-7.1c-0.2-0.8-0.4-1.7-0.5-2.5h7.1c0.1 0.8 0.3 1.6 0.5 2.5z"/>
				</g>
				<g id="Layer">
					<path id="Layer" class="s0" d="m211.8 161.5h-7.1c-0.1-0.8-0.1-1.5-0.1-2.3h7.1c0 0.8 0 1.6 0.1 2.3z"/>
				</g>
				<g id="Layer">
					<path id="Layer" class="s0" d="m211.7 159.3h-7.1c0-0.8 0-1.6 0.1-2.3h7.1c0 0.7-0.1 1.5-0.1 2.3z"/>
				</g>
				<g id="Layer">
					<path id="Layer" class="s0" d="m211.9 157h-7.1q0.2-1.4 0.6-2.7h7.1q-0.5 1.3-0.6 2.7z"/>
				</g>
				<g id="Layer">
					<path id="Layer" class="s0" d="m212.4 154.2h-7.1c0.6-2.5 2-4.7 3.9-6.3h7.1c-1.9 1.7-3.3 3.9-3.9 6.3z"/>
				</g>
			</g>
		</g>
	</g>
	<g id="Layer">
		<path id="Layer" class="s0" d="m449.7 451.7h60.4v109.3h-60.4z"/>
	</g>
	<g id="Layer">
		<path id="Layer" class="s2" d="m469.6 452.5h58.8v109.1h-58.8z"/>
	</g>
	<g id="Layer">
		<path id="Layer" fill-rule="evenodd" class="s0" d="m529.2 562.3h-60.4v-110.6h60.4zm-58.9-109v107.5h57.3v-107.6z"/>
	</g>
	<g id="Layer">
		<path id="Layer" class="s2" d="m482.7 466.5h16.7c0.4 0 0.8 0.4 0.8 0.8v16.7c0 0.4-0.4 0.8-0.8 0.8h-16.7c-0.4 0-0.8-0.4-0.8-0.8v-16.7c0-0.5 0.4-0.8 0.8-0.8z"/>
		<path id="Layer" fill-rule="evenodd" class="s0" d="m499.4 485.5h-16.7c-0.8 0-1.5-0.7-1.5-1.5v-16.7c0-0.8 0.7-1.5 1.5-1.5h16.7c0.8 0 1.5 0.7 1.5 1.5v16.7c0 0.8-0.7 1.5-1.5 1.5zm-16.7-18.3v16.7h16.7v-16.7z"/>
	</g>
	<g id="Layer">
		<path id="Layer" class="s2" d="m482.7 499.3h16.7c0.4 0 0.8 0.4 0.8 0.8v16.7c0 0.4-0.4 0.8-0.8 0.8h-16.7c-0.4 0-0.8-0.4-0.8-0.8v-16.7c0-0.4 0.4-0.8 0.8-0.8z"/>
		<path id="Layer" fill-rule="evenodd" class="s0" d="m499.4 518.3h-16.7c-0.8 0-1.5-0.7-1.5-1.5v-16.7c0-0.8 0.7-1.5 1.5-1.5h16.7c0.8 0 1.5 0.7 1.5 1.5v16.7c0 0.8-0.7 1.5-1.5 1.5zm-16.7-18.2v16.7h16.7v-16.7z"/>
	</g>
	<g id="Layer">
		<path id="Layer" class="s2" d="m482.7 532.2h16.7c0.4 0 0.8 0.4 0.8 0.8v16.7c0 0.4-0.4 0.8-0.8 0.8h-16.7c-0.4 0-0.8-0.4-0.8-0.8v-16.7c0-0.5 0.4-0.8 0.8-0.8z"/>
		<path id="Layer" fill-rule="evenodd" class="s0" d="m499.4 551.2h-16.7c-0.8 0-1.5-0.7-1.5-1.5v-16.7c0-0.8 0.7-1.5 1.5-1.5h16.7c0.8 0 1.5 0.7 1.5 1.5v16.7c0 0.8-0.7 1.5-1.5 1.5zm-16.7-18.3v16.7h16.7v-16.7z"/>
	</g>
	<g id="Layer">
		<path id="Layer" class="s2" d="m511.2 466.5h16.7c0.4 0 0.8 0.4 0.8 0.8v16.7c0 0.4-0.4 0.8-0.8 0.8h-16.7c-0.4 0-0.8-0.4-0.8-0.8v-16.7c0-0.5 0.4-0.8 0.8-0.8z"/>
		<path id="Layer" fill-rule="evenodd" class="s0" d="m527.9 485.5h-16.7c-0.8 0-1.5-0.7-1.5-1.5v-16.7c0-0.8 0.7-1.5 1.5-1.5h16.7c0.8 0 1.5 0.7 1.5 1.5v16.7c0 0.8-0.7 1.5-1.5 1.5zm-16.7-18.3v16.7h16.7v-16.7z"/>
	</g>
	<g id="Layer">
		<path id="Layer" class="s2" d="m511.2 499.3h16.7c0.4 0 0.8 0.4 0.8 0.8v16.7c0 0.4-0.4 0.8-0.8 0.8h-16.7c-0.4 0-0.8-0.4-0.8-0.8v-16.7c0-0.4 0.4-0.8 0.8-0.8z"/>
		<path id="Layer" fill-rule="evenodd" class="s0" d="m527.9 518.3h-16.7c-0.8 0-1.5-0.7-1.5-1.5v-16.7c0-0.8 0.7-1.5 1.5-1.5h16.7c0.8 0 1.5 0.7 1.5 1.5v16.7c0 0.8-0.7 1.5-1.5 1.5zm-16.7-18.2v16.7h16.7v-16.7z"/>
	</g>
	<g id="Layer">
		<path id="Layer" class="s2" d="m511.2 532.2h16.7c0.4 0 0.8 0.4 0.8 0.8v16.7c0 0.4-0.4 0.8-0.8 0.8h-16.7c-0.4 0-0.8-0.4-0.8-0.8v-16.7c0-0.5 0.4-0.8 0.8-0.8z"/>
		<path id="Layer" fill-rule="evenodd" class="s0" d="m527.9 551.2h-16.7c-0.8 0-1.5-0.7-1.5-1.5v-16.7c0-0.8 0.7-1.5 1.5-1.5h16.7c0.8 0 1.5 0.7 1.5 1.5v16.7c0 0.8-0.7 1.5-1.5 1.5zm-16.7-18.3v16.7h16.7v-16.7z"/>
	</g>
	<g id="Layer">
		<path id="Layer" class="s2" d="m519.9 381h83.6v180.7h-83.6z"/>
		<path id="Layer" fill-rule="evenodd" class="s0" d="m604.3 562.4h-85.1v-182.2h85.1zm-83.6-1.5h82.1v-179.2h-82.1z"/>
	</g>
	<g id="Layer">
		<path id="Layer" class="s2" d="m539.1 403h64.4v158.7h-64.4z"/>
		<path id="Layer" fill-rule="evenodd" class="s0" d="m604.3 562.4h-65.9v-160.2h65.9zm-64.4-1.5h62.9v-157.2h-62.9z"/>
	</g>
	<g id="Layer">
		<path id="Layer" class="s0" d="m552.6 403.6l1-1.1 50.7 50.7-1 1z"/>
	</g>
	<g id="Layer">
		<path id="Layer" class="s0" d="m538.6 425.2l1.1-1 64.4 66.5-1.1 1.1z"/>
	</g>
</svg>